# xmcd
#
# Track frame offsets:
#	150
#	28262
#	40920
#	58271
#	68356
#	88829
#	99373
#	121553
#	142565
#	179414
#	193917
#	239951
#
# Disc length: 3317 seconds
#
# Revision: 0
# Processed by: cddbd v1.5.2PL0 Copyright (c) Steve Scherf et al.
# Submitted via: EasyCDDAExtractor 9.0.0.1
#
DISCID=a40cf30c
DTITLE=Frank Zappa - Moby Gym Ft Collins CO 12-02-80 Disc 1
DYEAR=1980
DGENRE=Progressive Rock
TTITLE0=Chunga's Revenge
TTITLE1=Panty Rap
TTITLE2=You Are What You Is
TTITLE3=Love Of My Life
TTITLE4=Flakes
TTITLE5=Magic Fingers
TTITLE6=The Blue Light
TTITLE7=Tinseltown Rebellion
TTITLE8=Pick Me I'm Clean
TTITLE9=The Dangerous Kitchen
TTITLE10=City Of Tiny Lights
TTITLE11=Ain't Got No Heart
EXTD=
EXTT0=
EXTT1=
EXTT2=
EXTT3=
EXTT4=
EXTT5=
EXTT6=
EXTT7=
EXTT8=
EXTT9=
EXTT10=
EXTT11=
PLAYORDER=
